<svg width="57" height="22" viewBox="0 0 57 22" fill="none" xmlns="http://www.w3.org/2000/svg">
<path fill-rule="evenodd" clip-rule="evenodd" d="M35.4239 16.7393C32.1482 19.6357 27.4156 21.1813 23.3226 21.1813C17.867 21.2149 12.5976 18.8026 8.54684 14.4171C8.24114 14.0871 8.51358 13.6312 8.88195 13.8891C13.0888 16.8284 18.2933 18.5965 23.6667 18.5965C27.5405 18.5765 31.3727 17.6375 34.943 15.8338C35.4955 15.5529 35.9662 16.2727 35.4188 16.7547" fill="white"/>
<path fill-rule="evenodd" clip-rule="evenodd" d="M36.785 14.8746C36.3655 14.2315 34.0196 14.5676 32.9644 14.7211C32.6459 14.7672 32.596 14.4326 32.8851 14.1901C34.7564 12.6122 37.8236 13.0681 38.1805 13.5945C38.5373 14.121 38.0871 17.8185 36.3322 19.5806C36.0623 19.8522 35.8052 19.7064 35.9255 19.3503C36.3194 18.1669 37.2045 15.5131 36.785 14.8746Z" fill="white"/>
<path fill-rule="evenodd" clip-rule="evenodd" d="M33.0433 3.04194V1.50706C33.042 1.45559 33.0496 1.40436 33.0654 1.3565C33.0812 1.30863 33.105 1.26513 33.1352 1.22865C33.1655 1.19217 33.2017 1.16347 33.2415 1.14431C33.2813 1.12515 33.324 1.11592 33.3669 1.1172H39.0945C39.1376 1.11531 39.1805 1.12397 39.2207 1.14264C39.2609 1.16132 39.2974 1.18961 39.3282 1.2258C39.3589 1.26199 39.3832 1.30533 39.3996 1.35315C39.4159 1.40098 39.424 1.4523 39.4233 1.50398V2.81938C39.4233 3.03887 39.2685 3.32742 38.9922 3.78328L36.0273 8.86681C37.1273 8.83611 38.2926 9.03411 39.2928 9.70793C39.383 9.76696 39.4585 9.85358 39.5118 9.95898C39.565 10.0644 39.594 10.1848 39.5959 10.3081V11.9442C39.5959 12.1683 39.3913 12.4293 39.1751 12.2927C38.2389 11.7155 37.2011 11.4157 36.1486 11.4183C35.096 11.421 34.0593 11.7261 33.1251 12.308C32.9243 12.4339 32.7171 12.176 32.7171 11.9504V10.3986C32.6983 10.03 32.7723 9.66319 32.9294 9.3457L36.3689 3.42873H33.3771C33.3339 3.43081 33.2908 3.42232 33.2504 3.40376C33.21 3.3852 33.1732 3.35696 33.1422 3.32077C33.1112 3.28458 33.0867 3.2412 33.0701 3.19326C33.0535 3.14532 33.0453 3.09383 33.0458 3.04194" fill="white"/>
<path fill-rule="evenodd" clip-rule="evenodd" d="M12.149 12.6198H10.4043C10.3258 12.6155 10.2513 12.5775 10.1942 12.5127C10.1371 12.4479 10.1014 12.3606 10.0935 12.2668V1.53492C10.0945 1.48291 10.104 1.43165 10.1215 1.38406C10.139 1.33647 10.1642 1.29349 10.1956 1.25757C10.2269 1.22165 10.2639 1.1935 10.3043 1.17472C10.3447 1.15594 10.3878 1.14691 10.4312 1.14813H12.053C12.1336 1.15117 12.2103 1.18957 12.2688 1.25607C12.3273 1.32256 12.3634 1.4125 12.3702 1.50882V2.91631H12.4022C12.8243 1.56101 13.6225 0.930176 14.6956 0.930176C15.7687 0.930176 16.4684 1.56101 16.957 2.91631C17.3791 1.56101 18.3384 0.930176 19.3629 0.930176C20.0945 0.930176 20.8978 1.28934 21.3787 2.10283C21.9326 3.00534 21.82 4.31612 21.82 5.46728V12.233C21.818 12.3378 21.7815 12.4373 21.7184 12.5098C21.6553 12.5823 21.5709 12.6219 21.4836 12.6198H19.7415C19.6583 12.6155 19.5797 12.5732 19.5217 12.5016C19.4637 12.43 19.4307 12.3345 19.4294 12.2346V6.54477C19.4294 6.09352 19.4614 4.96384 19.3795 4.53561C19.2516 3.81268 18.859 3.61468 18.3563 3.61468C18.1296 3.62236 17.9098 3.71023 17.7246 3.86724C17.5394 4.02425 17.3969 4.24342 17.3151 4.49724C17.1361 5.03905 17.1527 5.94156 17.1527 6.55091V12.233C17.1519 12.2848 17.1425 12.3359 17.1252 12.3834C17.1079 12.4309 17.083 12.4738 17.0519 12.5097C17.0208 12.5457 16.9841 12.5739 16.9439 12.5928C16.9037 12.6116 16.8607 12.6208 16.8176 12.6198H15.0768C14.9935 12.6155 14.9147 12.5733 14.8564 12.5017C14.7982 12.4301 14.7649 12.3346 14.7634 12.2346V6.54477C14.7634 5.3491 14.9258 3.58705 13.6902 3.58705C12.4547 3.58705 12.4866 5.30305 12.4866 6.54477V12.233C12.4858 12.285 12.4764 12.3362 12.4591 12.3838C12.4417 12.4314 12.4167 12.4744 12.3854 12.5103C12.3541 12.5462 12.3173 12.5744 12.2769 12.5932C12.2366 12.612 12.1935 12.6211 12.1502 12.6198" fill="white"/>
<path fill-rule="evenodd" clip-rule="evenodd" d="M44.3496 0.921143C46.9372 0.921143 48.3352 3.58569 48.3352 6.97318C48.3352 10.2471 46.7901 12.8441 44.3496 12.8441C41.8132 12.8441 40.4318 10.178 40.4318 6.85806C40.4318 3.53811 41.8298 0.921143 44.3496 0.921143ZM44.3675 3.11142C43.0884 3.11142 43.0002 5.21114 43.0002 6.52039C43.0002 7.82964 42.9848 10.6308 44.3496 10.6308C45.7144 10.6308 45.7655 8.37299 45.7655 6.99467C45.7655 6.09062 45.7336 5.00853 45.5097 4.15053C45.314 3.40458 44.9239 3.11142 44.3714 3.11142" fill="white"/>
<path fill-rule="evenodd" clip-rule="evenodd" d="M51.6883 12.62H49.9526C49.8694 12.6154 49.7908 12.573 49.7326 12.5015C49.6744 12.43 49.6411 12.3347 49.6392 12.2347V1.49826C49.649 1.40048 49.6887 1.31054 49.7506 1.24589C49.8126 1.18123 49.8923 1.14646 49.9743 1.14831H51.5898C51.6623 1.15175 51.7318 1.18364 51.7877 1.2391C51.8436 1.29455 51.8829 1.3705 51.8993 1.45528V3.09607H51.9313C52.4186 1.62259 53.1016 0.921143 54.304 0.921143C55.0855 0.921143 55.8491 1.25882 56.3377 2.18435C56.793 3.04235 56.793 4.48667 56.793 5.52732V12.2808C56.7812 12.3764 56.7408 12.4635 56.6794 12.5259C56.618 12.5883 56.5397 12.6218 56.4592 12.62H54.712C54.6358 12.6146 54.5634 12.5777 54.5073 12.5156C54.4511 12.4535 54.4145 12.37 54.4037 12.2793V6.44671C54.4037 5.27253 54.5176 3.55807 53.314 3.55807C53.0951 3.5695 52.8837 3.65637 52.705 3.80826C52.5262 3.96016 52.3877 4.17064 52.3061 4.41453C52.063 5.06993 52.0285 5.72378 52.0285 6.44671V12.2332C52.0258 12.3383 51.9887 12.4378 51.9253 12.5102C51.8618 12.5826 51.7771 12.6221 51.6896 12.62" fill="white"/>
<path fill-rule="evenodd" clip-rule="evenodd" d="M28.4749 7.49332C28.4749 8.30834 28.4903 8.98675 28.1488 9.71275C27.8712 10.3006 27.4325 10.6628 26.9426 10.6628C26.2737 10.6628 25.8823 10.0489 25.8823 9.14638C25.8823 7.36592 27.2138 7.04206 28.4749 7.04206V7.49332ZM30.2298 12.586C30.1738 12.6443 30.104 12.6803 30.0302 12.6888C29.9564 12.6973 29.8822 12.678 29.818 12.6336C29.2398 12.058 29.1362 11.791 28.8203 11.2415C27.8636 12.4111 27.1857 12.761 25.9475 12.761C24.4804 12.761 23.3395 11.6743 23.3395 9.50247C23.3395 7.8049 24.1069 6.6522 25.1967 6.0843C26.1432 5.58699 27.4632 5.49643 28.4737 5.36136V5.09583C28.4737 4.597 28.5056 4.00913 28.2613 3.5809C28.0503 3.19411 27.6423 3.03756 27.2829 3.03756C26.619 3.03756 26.0294 3.44583 25.8823 4.29155C25.8735 4.38632 25.8393 4.47511 25.7849 4.54458C25.7304 4.61405 25.6587 4.66045 25.5804 4.67681L23.892 4.45732C23.8508 4.44998 23.8113 4.43265 23.7758 4.40638C23.7404 4.38012 23.7098 4.34547 23.6858 4.30454C23.6619 4.26361 23.6452 4.21727 23.6366 4.16833C23.6281 4.11939 23.628 4.06888 23.6362 4.01988C24.02 1.56407 25.8746 0.818115 27.531 0.818115C28.379 0.818115 29.488 1.08979 30.1556 1.85876C31.0037 2.80886 30.9231 4.0782 30.9231 5.45806V8.71508C30.9231 9.69587 31.262 10.1241 31.5818 10.6536C31.6918 10.844 31.7174 11.0696 31.5818 11.2077C31.2262 11.5669 30.5931 12.2269 30.2465 12.5983L30.2298 12.586Z" fill="white"/>
<path fill-rule="evenodd" clip-rule="evenodd" d="M5.63418 7.49332C5.63418 8.30834 5.64953 8.98675 5.30802 9.71275C5.03046 10.3006 4.59174 10.6628 4.10186 10.6628C3.4329 10.6628 3.04151 10.0489 3.04151 9.14638C3.04151 7.36592 4.37429 7.04206 5.63418 7.04206V7.49332ZM7.39034 12.586C7.33452 12.6442 7.26497 12.6801 7.19139 12.6886C7.1178 12.6971 7.04383 12.6779 6.97976 12.6336C6.40034 12.058 6.29674 11.791 5.97953 11.2415C5.02406 12.4111 4.34616 12.761 3.10802 12.761C1.64093 12.761 0.5 11.6743 0.5 9.50247C0.5 7.8049 1.26744 6.6522 2.35721 6.0843C3.30372 5.58699 4.62371 5.49643 5.63418 5.36136V5.09583C5.63418 4.597 5.66615 4.00913 5.42185 3.5809C5.2108 3.19411 4.80278 3.03756 4.44336 3.03756C3.77953 3.03756 3.1886 3.44583 3.04279 4.29155C3.0342 4.38641 3.00009 4.47533 2.94562 4.54484C2.89116 4.61436 2.8193 4.66068 2.74093 4.67681L1.05256 4.45732C1.01135 4.44998 0.971806 4.43265 0.936354 4.40638C0.900902 4.38012 0.870279 4.34547 0.846345 4.30454C0.822412 4.26361 0.80567 4.21727 0.797143 4.16833C0.788616 4.11939 0.788481 4.06888 0.796745 4.01988C1.18047 1.56407 3.03511 0.818115 4.69278 0.818115C5.53953 0.818115 6.64848 1.08979 7.31743 1.85876C8.16417 2.80886 8.08487 4.0782 8.08487 5.45806V8.71508C8.08487 9.69587 8.42255 10.1241 8.74231 10.6536C8.85231 10.844 8.87789 11.0696 8.73592 11.2077C8.38034 11.5669 7.7472 12.2269 7.40057 12.5983L7.39034 12.586Z" fill="white"/>
</svg>
