<svg width="70" height="44" viewBox="0 0 70 44" fill="none" xmlns="http://www.w3.org/2000/svg">
<path d="M43.9744 12.0215H39.1445C38.6276 12.0215 38.2069 12.4128 38.2069 12.8937V15.7579C38.2069 16.2388 38.6276 16.6301 39.1445 16.6301H39.958V31.023C39.958 31.5038 40.3786 31.8951 40.8956 31.8951H43.9744C44.4913 31.8951 44.912 31.5038 44.912 31.023V12.8933C44.912 12.4128 44.4913 12.0215 43.9744 12.0215Z" fill="white"/>
<path d="M0 22.316C0 27.7667 4.76715 32.2012 10.6267 32.2012C16.4862 32.2012 21.2533 27.7667 21.2533 22.316C21.2533 18.8632 19.3062 15.6574 16.1484 13.8704C18.0305 12.3801 19.1026 10.2171 19.1026 7.88449C19.103 3.53707 15.3006 0 10.6267 0C5.95273 0 2.1507 3.53707 2.1507 7.88449C2.1507 10.2171 3.2228 12.3798 5.1049 13.8704C1.94705 15.6574 0 18.8636 0 22.316ZM10.6267 11.4731C8.49964 11.4731 6.76922 9.86343 6.76922 7.88484C6.76922 5.90626 8.49964 4.29659 10.6267 4.29659C12.7537 4.29659 14.4841 5.90626 14.4841 7.88484C14.4841 9.86343 12.7537 11.4731 10.6267 11.4731ZM4.61852 22.316C4.61852 19.2343 7.31368 16.7272 10.6267 16.7272C13.9396 16.7272 16.6348 19.2343 16.6348 22.316C16.6348 25.3978 13.9396 27.9046 10.6267 27.9046C7.31406 27.9049 4.61852 25.3978 4.61852 22.316Z" fill="white"/>
<path d="M68.4264 12.3364H65.6831C65.1661 12.3364 64.7454 12.7277 64.7454 13.2086V14.3601C62.9772 13.2381 60.862 12.6243 58.7373 12.6243C52.8778 12.6243 48.1106 17.0588 48.1106 22.5094C48.1106 27.96 52.8778 32.3945 58.7373 32.3945C60.8616 32.3945 62.9768 31.7807 64.7454 30.6587V33.6712C64.7454 35.1945 64.0711 36.6847 62.8954 37.7599C61.7374 38.8186 60.2228 39.3898 58.6326 39.3624C55.3773 39.3105 52.7291 36.8038 52.7291 33.7746V33.6513C52.7291 33.1704 52.3085 32.7791 51.7915 32.7791H49.0482C48.5313 32.7791 48.1106 33.1704 48.1106 33.6513C48.1106 39.1175 52.8308 43.6068 58.6326 43.6594C58.6681 43.6597 58.7029 43.6597 58.7384 43.6597C61.5536 43.6597 64.204 42.6447 66.2115 40.7954C68.2445 38.9224 69.3644 36.4292 69.3644 33.7746V13.2086C69.364 12.7277 68.9437 12.3364 68.4264 12.3364ZM64.7454 22.5094C64.7454 25.5912 62.0503 28.0979 58.7373 28.0979C55.4243 28.0979 52.7291 25.5909 52.7291 22.5094C52.7291 19.428 55.4243 16.9205 58.7373 16.9205C62.0503 16.9205 64.7454 19.428 64.7454 22.5094Z" fill="white"/>
<path d="M43.1244 9.9728C44.7864 9.3324 45.5756 7.55996 44.8872 6.01393C44.1987 4.46791 42.2933 3.73375 40.6313 4.37415C38.9693 5.01455 38.18 6.78699 38.8685 8.33302C39.5569 9.87905 41.4623 10.6132 43.1244 9.9728Z" fill="white"/>
<path d="M31.1034 8.45751C31.1038 5.85162 32.7135 5.31708 34.8634 5.31708C35.2271 5.31708 35.5217 5.04306 35.5217 4.70471V1.32722C35.5217 0.988867 35.2271 0.714844 34.8634 0.714844C29.1957 0.714844 26.1494 3.39217 26.1494 8.45751L26.149 12.2693H24.1676C23.6824 12.2693 23.2888 12.6354 23.2888 13.0868V16.0605C23.2888 16.5119 23.6824 16.8779 24.1676 16.8779H26.149V31.1766C26.149 31.5622 26.4849 31.8746 26.8994 31.8746H30.3522C30.7668 31.8746 31.1026 31.5622 31.1026 31.1766V16.8779H34.6689C35.1542 16.8779 35.5477 16.5119 35.5477 16.0605V13.0868C35.5477 12.6354 35.1542 12.2693 34.6689 12.2693H31.1026L31.1034 8.45751Z" fill="white"/>
</svg>
