<svg width="85" height="24" viewBox="0 0 85 24" fill="none" xmlns="http://www.w3.org/2000/svg">
<path d="M9.98252 0.841263C10.1504 0.841263 10.2343 0.925468 10.4021 1.00967C9.39511 1.4307 8.38811 2.52538 7.88462 4.88314L6.03846 5.38837C6.62587 3.70426 7.8007 0.841263 9.98252 0.841263ZM10.9056 1.68332C11.0734 2.18855 11.2413 2.77799 11.2413 3.70426C11.2413 3.78846 11.2413 3.78846 11.2413 3.87267L8.80769 4.54631C9.31119 2.77799 10.1504 2.02014 10.9056 1.68332ZM13.0874 3.19902L11.9965 3.53584C11.9965 3.45164 11.9965 3.36743 11.9965 3.28323C11.9965 2.52538 11.9126 1.93594 11.7448 1.4307C12.3322 1.59911 12.8357 2.35696 13.0874 3.19902ZM18.542 4.54631C18.542 4.46211 18.458 4.3779 18.3741 4.3779C18.2063 4.3779 16.4441 4.20949 16.4441 4.20949C16.4441 4.20949 15.1853 2.9464 15.0175 2.8622C14.8497 2.69379 14.5979 2.77799 14.514 2.77799C14.514 2.77799 14.2622 2.8622 13.8427 3.03061C13.4231 1.85173 12.6678 0.757057 11.4091 0.757057H11.3252C10.9895 0.251823 10.486 0.0834116 10.0664 0.0834116C7.04545 -0.000794068 5.61888 3.78846 5.11539 5.72519C4.44406 5.8936 3.77273 6.14622 3.01748 6.39884C2.34615 6.56725 2.34615 6.65145 2.26224 7.24089C2.17832 7.66192 0.5 20.9664 0.5 20.9664L13.8427 23.4926L21.0594 21.8927C21.0594 21.8927 18.542 4.71472 18.542 4.54631Z" fill="white"/>
<path d="M18.2903 4.37798C18.2064 4.37798 16.4442 4.20957 16.4442 4.20957C16.4442 4.20957 15.1854 2.94649 15.0176 2.86228C14.9337 2.77808 14.9337 2.77808 14.8498 2.77808L13.8428 23.4927L21.0596 21.8928C21.0596 21.8928 18.5421 4.71481 18.5421 4.5464C18.5421 4.46219 18.3742 4.37798 18.2903 4.37798Z" fill="#333645"/>
<path d="M11.4092 8.41998L10.4861 11.1146C10.4861 11.1146 9.73085 10.6935 8.72386 10.6935C7.29729 10.6935 7.21337 11.5356 7.21337 11.7882C7.21337 12.9671 10.4022 13.4723 10.4022 16.3353C10.4022 18.6089 8.97561 20.0404 7.04554 20.0404C4.77981 20.0404 3.60498 18.6089 3.60498 18.6089L4.19239 16.5879C4.19239 16.5879 5.36722 17.5984 6.37421 17.5984C7.04554 17.5984 7.29729 17.0932 7.29729 16.6721C7.29729 15.0722 4.69589 14.988 4.69589 12.3776C4.69589 10.1883 6.2903 8.08316 9.39519 8.08316C10.8218 7.99895 11.4092 8.41998 11.4092 8.41998Z" fill="#333645"/>
<path d="M29.5349 13.388C28.7797 12.967 28.444 12.6302 28.444 12.2091C28.444 11.6197 28.9475 11.2829 29.7866 11.2829C30.7097 11.2829 31.5489 11.7039 31.5489 11.7039L32.2202 9.68296C32.2202 9.68296 31.6328 9.17772 29.8706 9.17772C27.3531 9.17772 25.6748 10.6092 25.6748 12.6302C25.6748 13.809 26.5139 14.6511 27.5209 15.2405C28.3601 15.7458 28.6957 16.0826 28.6957 16.5878C28.6957 17.0931 28.2762 17.5983 27.437 17.5983C26.2622 17.5983 25.0873 17.0089 25.0873 17.0089L24.416 19.0298C24.416 19.0298 25.423 19.7034 27.1852 19.7034C29.7027 19.7034 31.5489 18.4403 31.5489 16.1668C31.5489 14.9037 30.6258 13.9774 29.5349 13.388ZM39.6887 9.09352C38.43 9.09352 37.423 9.68296 36.6678 10.6092L37.7587 4.88323H34.9055L32.1363 19.4508H34.9894L35.9125 14.4827C36.2482 12.6302 37.2552 11.4513 38.1783 11.4513C38.8496 11.4513 39.1013 11.8723 39.1013 12.5459C39.1013 12.967 39.1013 13.388 39.0174 13.809L37.9265 19.535H40.7797L41.8706 13.6406C41.9545 13.0512 42.0384 12.2933 42.0384 11.7881C42.0384 10.104 41.1992 9.09352 39.6887 9.09352ZM46.9894 17.4299C45.9825 17.4299 45.6468 16.5878 45.6468 15.5774C45.6468 13.9774 46.4859 11.2829 47.9964 11.2829C49.0034 11.2829 49.3391 12.1249 49.3391 12.967C49.3391 14.8195 48.4999 17.4299 46.9894 17.4299ZM48.416 9.09352C44.9755 9.09352 42.7097 12.2091 42.7097 15.6616C42.7097 17.8509 44.0524 19.6192 46.6538 19.6192C50.0104 19.6192 52.2762 16.5878 52.2762 13.0512C52.2762 11.0302 51.1013 9.09352 48.416 9.09352ZM56.8076 17.5141C56.0524 17.5141 55.6328 17.0931 55.6328 17.0931L56.1363 14.3985C56.472 12.6302 57.395 11.4513 58.402 11.4513C59.2412 11.4513 59.5769 12.2933 59.5769 13.0512C59.4929 14.9037 58.402 17.5141 56.8076 17.5141ZM59.5769 9.09352C57.6468 9.09352 56.5559 10.7776 56.5559 10.7776L56.7237 9.26193H54.2062C54.1223 10.2724 53.8706 11.8723 53.6188 13.0512L51.6048 23.4927H54.458L55.2132 19.2824H55.2971C55.2971 19.2824 55.8846 19.6192 56.9755 19.6192C60.3321 19.6192 62.5139 16.1668 62.5139 12.7144C62.5139 10.8618 61.6748 9.09352 59.5769 9.09352ZM66.5419 5.05164C65.6188 5.05164 64.9475 5.80949 64.9475 6.73576C64.9475 7.57781 65.451 8.16725 66.2901 8.16725C67.2132 8.16725 67.9685 7.57781 67.9685 6.48314C67.9685 5.64108 67.3811 5.05164 66.5419 5.05164ZM62.5978 19.4508H65.451L67.3811 9.34613H64.5279L62.5978 19.4508ZM74.5978 9.34613H72.5839L72.6678 8.8409C72.8356 7.83043 73.423 6.98837 74.3461 6.98837C74.8496 6.98837 75.2692 7.15679 75.2692 7.15679L75.8566 4.88323C75.8566 4.88323 75.3531 4.63062 74.3461 4.63062C73.3391 4.63062 72.3321 4.88323 71.5769 5.55688C70.5699 6.39893 70.1503 7.57781 69.8985 8.75669L69.8146 9.26193H68.472L68.0524 11.4513H69.395L67.8846 19.4508H70.7377L72.2482 11.4513H74.1783L74.5978 9.34613ZM81.395 9.34613C81.395 9.34613 79.6328 13.809 78.7936 16.251C78.7097 15.4931 78.1223 9.34613 78.1223 9.34613H75.1013L76.7797 18.6088C76.7797 18.7772 76.7797 18.9456 76.6957 19.114C76.3601 19.7876 75.7727 20.3771 75.1852 20.7981C74.6818 21.2191 74.0104 21.4718 73.5908 21.6402L74.3461 24.0821C74.9335 23.9979 76.1083 23.4927 77.1153 22.5664C78.3741 21.3875 79.6328 19.4508 80.8076 16.9246L84.2482 9.43034L81.395 9.34613Z" fill="white"/>
</svg>
