<svg width="140" height="35" viewBox="0 0 140 35" fill="none" xmlns="http://www.w3.org/2000/svg">
<g clip-path="url(#clip0_4001_2413)">
<path d="M36.785 12.6031H50.958V15.2001H45.386V29.8021H42.32V15.2001H36.772V12.6021H36.784L36.785 12.6031ZM50.353 17.3481H52.973V19.7521H53.022C53.109 19.4121 53.269 19.0841 53.504 18.7681C54.0065 18.0908 54.6866 17.5657 55.469 17.2511C55.8664 17.0936 56.2896 17.0112 56.717 17.0081C57.037 17.0081 57.273 17.0201 57.397 17.0331C57.52 17.0451 57.643 17.0691 57.779 17.0811V19.7271C57.5783 19.6919 57.3766 19.6636 57.174 19.6421C56.9729 19.6183 56.7705 19.6062 56.568 19.6061C56.098 19.6061 55.654 19.7031 55.234 19.8861C54.814 20.0671 54.455 20.3461 54.147 20.6991C53.8184 21.0937 53.5667 21.5466 53.405 22.034C53.22 22.5681 53.133 23.1741 53.133 23.8671V29.7901H50.341V17.3481H50.353ZM70.618 29.8031H67.875V28.0671H67.825C67.479 28.6991 66.973 29.1971 66.293 29.5731C65.613 29.9491 64.921 30.1431 64.217 30.1431C62.549 30.1431 61.337 29.743 60.597 28.9291C59.855 28.1161 59.484 26.8901 59.484 25.2511V17.3491H62.277V24.9841C62.277 26.0771 62.487 26.8541 62.92 27.3031C63.34 27.7521 63.945 27.9831 64.711 27.9831C65.304 27.9831 65.786 27.8981 66.181 27.7151C66.577 27.5331 66.898 27.3031 67.133 26.9991C67.38 26.708 67.553 26.3441 67.665 25.9311C67.775 25.5181 67.825 25.0691 67.825 24.5841V17.3611H70.618V29.8031ZM75.375 25.8101C75.462 26.6101 75.77 27.1701 76.302 27.4971C76.845 27.8131 77.488 27.9831 78.242 27.9831C78.502 27.9831 78.798 27.9581 79.132 27.9221C79.465 27.8851 79.786 27.8001 80.071 27.6921C80.367 27.5821 80.601 27.4121 80.799 27.1941C80.985 26.9741 81.071 26.6961 81.059 26.3441C81.0574 26.1807 81.0214 26.0195 80.9533 25.871C80.8853 25.7224 80.7867 25.5899 80.664 25.4821C80.416 25.2521 80.108 25.0821 79.724 24.9361C79.2962 24.7878 78.8585 24.6702 78.414 24.5841C77.92 24.4871 77.426 24.3771 76.92 24.2681C76.4102 24.1578 75.9068 24.0199 75.412 23.8551C74.9479 23.7063 74.5102 23.4853 74.115 23.2001C73.7299 22.9313 73.4159 22.573 73.2 22.1561C72.966 21.7311 72.854 21.2091 72.854 20.5781C72.854 19.8981 73.027 19.3401 73.361 18.8781C73.6979 18.4199 74.1328 18.0427 74.634 17.7741C75.1726 17.4893 75.7517 17.2887 76.351 17.1791C76.981 17.0701 77.587 17.0091 78.155 17.0091C78.81 17.0091 79.44 17.0821 80.034 17.2161C80.6091 17.3392 81.1572 17.5651 81.652 17.8831C82.134 18.1871 82.529 18.5871 82.851 19.0731C83.172 19.5581 83.37 20.1531 83.456 20.8451H80.54C80.404 20.1901 80.107 19.7411 79.626 19.5221C79.144 19.2921 78.588 19.1821 77.97 19.1821C77.772 19.1821 77.537 19.1941 77.266 19.2311C77.0049 19.2658 76.7479 19.3268 76.499 19.4131C76.2715 19.4968 76.065 19.6292 75.894 19.8011C75.811 19.8907 75.7464 19.9959 75.704 20.1105C75.6616 20.2251 75.6423 20.3469 75.647 20.4691C75.647 20.8091 75.77 21.0761 76.005 21.2821C76.24 21.4881 76.549 21.6581 76.932 21.8041C77.315 21.9381 77.748 22.0591 78.242 22.1561C78.736 22.2531 79.242 22.3621 79.762 22.4721C80.268 22.5811 80.762 22.7271 81.257 22.8841C81.751 23.0421 82.183 23.2611 82.567 23.5401C82.95 23.8191 83.259 24.159 83.493 24.5721C83.728 24.984 83.852 25.5061 83.852 26.1131C83.852 26.8531 83.679 27.4731 83.332 27.9951C82.987 28.5051 82.542 28.9291 81.998 29.2451C81.4285 29.5731 80.8115 29.8106 80.169 29.9491C79.5154 30.0928 78.8482 30.1659 78.179 30.1671C77.4295 30.1755 76.6822 30.0857 75.956 29.9001C75.276 29.7181 74.683 29.451 74.189 29.1C73.7008 28.7453 73.2994 28.2844 73.015 27.7521C72.731 27.2181 72.582 26.5741 72.558 25.8341H75.375V25.8101ZM84.593 17.35H86.706V13.6101H89.499V17.35H92.019V19.4001H89.5V26.0531C89.5 26.3431 89.512 26.5871 89.537 26.8051C89.561 27.0121 89.623 27.194 89.71 27.3391C89.8045 27.4914 89.948 27.6071 90.117 27.6671C90.303 27.7401 90.537 27.7771 90.859 27.7771C91.056 27.7771 91.254 27.7771 91.452 27.7641C91.65 27.7521 91.847 27.7281 92.045 27.6791V29.8031C91.736 29.8401 91.427 29.8641 91.143 29.9001C90.8436 29.9349 90.5424 29.9512 90.241 29.9491C89.5 29.9491 88.907 29.8761 88.461 29.7431C88.017 29.6091 87.658 29.4031 87.411 29.1361C87.151 28.8691 86.991 28.5411 86.892 28.1401C86.7957 27.6891 86.7422 27.2301 86.732 26.7691V19.4231H84.619V17.3471H84.594L84.593 17.35ZM93.996 17.35H96.641V19.0361H96.691C97.085 18.3081 97.629 17.7981 98.333 17.4831C99.0526 17.1631 99.8325 17.0015 100.62 17.0091C101.62 17.0091 102.485 17.1791 103.227 17.5311C103.968 17.8711 104.586 18.3451 105.08 18.9511C105.574 19.5581 105.933 20.2621 106.18 21.0641C106.432 21.8983 106.557 22.7657 106.551 23.6371C106.551 24.4741 106.44 25.2871 106.217 26.0651C106.012 26.8155 105.673 27.5226 105.216 28.1521C104.767 28.7589 104.183 29.2535 103.511 29.5971C102.819 29.9611 102.016 30.1431 101.077 30.1431C100.667 30.1426 100.257 30.1058 99.853 30.0331C99.4501 29.9604 99.0566 29.8427 98.68 29.6821C98.3059 29.5259 97.956 29.3172 97.641 29.0621C97.3301 28.814 97.0592 28.5196 96.838 28.1891H96.788V34.4041H93.996V17.3481V17.35ZM103.758 23.5881C103.759 23.0345 103.684 22.4835 103.536 21.9501C103.399 21.4446 103.173 20.9678 102.868 20.5421C102.579 20.137 102.203 19.801 101.769 19.5581C101.302 19.3059 100.779 19.1765 100.249 19.1821C99.075 19.1821 98.185 19.5821 97.592 20.3841C96.999 21.1851 96.702 22.2541 96.702 23.5881C96.702 24.2191 96.777 24.802 96.937 25.3361C97.097 25.8701 97.32 26.3321 97.641 26.7201C97.951 27.1091 98.321 27.4121 98.754 27.6301C99.186 27.8611 99.693 27.9701 100.261 27.9701C100.904 27.9701 101.435 27.8371 101.88 27.5821C102.311 27.3341 102.682 26.9944 102.967 26.5871C103.251 26.1741 103.462 25.7121 103.585 25.1911C103.699 24.6643 103.757 24.127 103.758 23.5881ZM108.688 12.6031H111.481V15.2011H108.688V12.6031ZM108.688 17.3491H111.481V29.8031H108.688V17.3491ZM113.977 12.6031H116.77V29.8031H113.977V12.6031ZM125.333 30.1431C124.319 30.1431 123.417 29.9731 122.627 29.6461C121.87 29.3354 121.184 28.8725 120.613 28.2861C120.058 27.6878 119.632 26.9809 119.364 26.2101C119.07 25.3592 118.924 24.4642 118.932 23.5641C118.932 22.6171 119.08 21.7441 119.364 20.9421C119.633 20.1716 120.058 19.4651 120.613 18.8671C121.156 18.284 121.836 17.8351 122.627 17.5071C123.417 17.1791 124.319 17.0091 125.333 17.0091C126.346 17.0091 127.248 17.1791 128.039 17.5071C128.83 17.8351 129.497 18.297 130.053 18.8671C130.608 19.4649 131.033 20.1715 131.301 20.9421C131.585 21.7431 131.733 22.6171 131.733 23.5641C131.733 24.5241 131.585 25.4091 131.301 26.2101C131.033 26.981 130.608 27.688 130.053 28.2861C129.509 28.8691 128.83 29.3181 128.039 29.6461C127.248 29.9731 126.346 30.1431 125.333 30.1431ZM125.333 27.9701C125.951 27.9701 126.494 27.8371 126.951 27.5821C127.396 27.3341 127.781 26.9897 128.076 26.5741C128.372 26.1621 128.582 25.6881 128.731 25.1661C128.867 24.6441 128.941 24.1101 128.941 23.5641C128.941 23.0301 128.867 22.5081 128.731 21.9741C128.604 21.4675 128.381 20.9897 128.076 20.5661C127.78 20.1544 127.396 19.8143 126.951 19.5711C126.494 19.3161 125.951 19.1821 125.333 19.1821C124.715 19.1821 124.171 19.3161 123.714 19.5711C123.272 19.818 122.889 20.1574 122.59 20.5661C122.289 20.9923 122.067 21.4692 121.935 21.9741C121.798 22.4931 121.727 23.0273 121.724 23.5641C121.724 24.1101 121.799 24.6441 121.935 25.1661C122.071 25.6881 122.293 26.1621 122.59 26.5741C122.886 26.9871 123.257 27.3271 123.714 27.5821C124.171 27.8491 124.715 27.9701 125.333 27.9701ZM132.549 17.35H134.662V13.6101H137.455V17.35H139.975V19.4001H137.455V26.0531C137.455 26.3431 137.467 26.5871 137.491 26.8051C137.516 27.0121 137.578 27.194 137.665 27.3391C137.759 27.4916 137.903 27.6073 138.072 27.6671C138.258 27.7401 138.492 27.7771 138.814 27.7771C139.011 27.7771 139.209 27.7771 139.407 27.7641C139.605 27.7521 139.802 27.7281 140 27.6791V29.8031C139.691 29.8401 139.382 29.8641 139.098 29.9001C138.799 29.9348 138.497 29.9512 138.196 29.9491C137.455 29.9491 136.861 29.8761 136.416 29.7431C135.972 29.6091 135.613 29.4031 135.366 29.1361C135.107 28.8691 134.946 28.5411 134.847 28.1401C134.751 27.6891 134.697 27.2301 134.687 26.7691V19.4231H132.574V17.3471H132.549V17.35Z" fill="white"/>
<path d="M33.523 12.6018H20.722L16.768 0.632812L12.8 12.6028L0 12.5898L10.367 19.9938L6.401 31.9498L16.768 24.5578L27.123 31.9498L23.169 19.9938L33.523 12.6018Z" fill="#B0B0B6"/>
<path d="M24.058 22.7016L23.168 19.9946L16.768 24.5586L24.058 22.7016Z" fill="#126849"/>
</g>
<defs>
<clipPath id="clip0_4001_2413">
<rect width="140" height="34" fill="white" transform="translate(0 0.632812)"/>
</clipPath>
</defs>
</svg>
